<svg xmlns="http://www.w3.org/2000/svg" viewBox="0 0 72.7 94.84"><defs><style>.cls-1{fill:#ee3767;}.cls-2{fill:#f599b1;}.cls-3{fill:#f282a9;}.cls-4{fill:#f9bfcb;}</style></defs><g id="Camada_2" data-name="Camada 2"><g id="Camada_1-2" data-name="Camada 1"><polygon class="cls-1" points="23.6 74.39 23.6 74.39 21.9 72.7 23.6 74.39"/><path class="cls-2" d="M31.42,67.41A7.48,7.48,0,0,0,42,56.83,12.93,12.93,0,0,0,39.59,55L47.3,47.3l-1.69-1.69h0l-6-6A12.7,12.7,0,0,1,37.77,42,7.48,7.48,0,0,1,27.19,31.42a12.7,12.7,0,0,1,2.42-1.82l-7.7-7.7L2.47,41.34a8.43,8.43,0,0,0,0,11.92L21.9,72.69h0L29.61,65A12.29,12.29,0,0,0,31.42,67.41Z"/><path class="cls-3" d="M67.41,63.18A7.48,7.48,0,0,0,56.83,52.59,12.93,12.93,0,0,0,55,55L47.3,47.3,39.59,55A12.93,12.93,0,0,1,42,56.83,7.48,7.48,0,0,1,31.42,67.41,12.29,12.29,0,0,1,29.61,65L21.9,72.7,41.74,92.54a7.86,7.86,0,0,0,11.12,0L72.69,72.7h0L65,65A12.29,12.29,0,0,0,67.41,63.18Z"/><path class="cls-4" d="M27.19,31.42A7.48,7.48,0,0,0,37.77,42a12.7,12.7,0,0,0,1.82-2.43l6,6,1.66,1.66,0,0L55,39.59a12.93,12.93,0,0,1-2.42-1.82A7.48,7.48,0,0,1,63.18,27.19,12.29,12.29,0,0,1,65,29.61L72.7,21.9h0L53.26,2.47a8.43,8.43,0,0,0-11.92,0L21.91,21.9l7.7,7.7A12.7,12.7,0,0,0,27.19,31.42Z"/></g></g></svg>