<svg xmlns="http://www.w3.org/2000/svg" viewBox="0 0 254.53 94.84"><defs><style>.cls-1{fill:#ee3767;}.cls-2{fill:#f599b1;}.cls-3{fill:#f282a9;}.cls-4{fill:#f9bfcb;}.cls-5{fill:#2c3e50;}</style></defs><g id="Camada_2" data-name="Camada 2"><g id="Camada_1-2" data-name="Camada 1"><polygon class="cls-1" points="23.6 74.39 23.6 74.39 21.9 72.7 23.6 74.39"/><path class="cls-2" d="M31.42,67.41A7.48,7.48,0,0,0,42,56.83,12.93,12.93,0,0,0,39.59,55L47.3,47.3l-1.69-1.69h0l-6-6A12.7,12.7,0,0,1,37.77,42,7.48,7.48,0,0,1,27.19,31.42a12.7,12.7,0,0,1,2.42-1.82l-7.7-7.7L2.47,41.34a8.43,8.43,0,0,0,0,11.92L21.9,72.69h0L29.61,65A12.29,12.29,0,0,0,31.42,67.41Z"/><path class="cls-3" d="M67.41,63.18A7.48,7.48,0,0,0,56.83,52.59,12.93,12.93,0,0,0,55,55L47.3,47.3,39.59,55A12.93,12.93,0,0,1,42,56.83,7.48,7.48,0,0,1,31.42,67.41,12.29,12.29,0,0,1,29.61,65L21.9,72.7,41.74,92.54a7.86,7.86,0,0,0,11.12,0L72.69,72.7h0L65,65A12.29,12.29,0,0,0,67.41,63.18Z"/><path class="cls-4" d="M27.19,31.42A7.48,7.48,0,0,0,37.77,42a12.7,12.7,0,0,0,1.82-2.43l6,6,1.66,1.66,0,0L55,39.59a12.93,12.93,0,0,1-2.42-1.82A7.48,7.48,0,0,1,63.18,27.19,12.29,12.29,0,0,1,65,29.61L72.7,21.9h0L53.26,2.47a8.43,8.43,0,0,0-11.92,0L21.91,21.9l7.7,7.7A12.7,12.7,0,0,0,27.19,31.42Z"/><path class="cls-5" d="M96.92,37.74A6.53,6.53,0,0,1,101.35,41a16.93,16.93,0,0,1,2,6.16,46.28,46.28,0,0,1,.42,6.18c0,.29,0,1.09,0,2.41s-.1,2.78-.22,4.38l0,1a3.89,3.89,0,0,1-.62,2,2.29,2.29,0,0,1-1.11.83,3.39,3.39,0,0,1-.91.18h0l-3,0h-.13a4.59,4.59,0,0,1-.85-.11,2.19,2.19,0,0,1-1.08-.63,2.35,2.35,0,0,1-.46-.73,2.82,2.82,0,0,1-.19-1.08v-.14c.16-2.59.23-4.86.23-6.82s-.1-3.77-.29-5.75a15.23,15.23,0,0,0-1-4.51c-.46-1-.83-1.6-1.1-1.72a.72.72,0,0,0-.35-.14.47.47,0,0,0-.18,0,2,2,0,0,0-.6.11l-.37.25c-1.79,1.52-2.69,4.21-2.71,8.09V52.2q0,5-.16,8.4a3.29,3.29,0,0,1-3,3.29H84.37a5.62,5.62,0,0,1-2.46-.55,2.87,2.87,0,0,1-1.72-2.53q0-7.26-.21-16.16v-.23C79.89,40,79.84,32.81,79.84,31a4.06,4.06,0,0,1,1.1-3,4.16,4.16,0,0,1,3-1.07h.32a5.69,5.69,0,0,1,2.26.39,4.07,4.07,0,0,1,1.39.89,3.43,3.43,0,0,1,1,2.39,2,2,0,0,1,0,.34c-.09,1-.14,6.68-.16,8.92l0-.07.07,0a9.61,9.61,0,0,1,6.11-2.16A10.7,10.7,0,0,1,96.92,37.74Z"/><path class="cls-5" d="M130.14,53.1l1,.73a1.42,1.42,0,0,1,.5.83.86.86,0,0,1,0,.23,1.44,1.44,0,0,1-.2.71c-.57,1-1.21,1.94-1.93,2.94a19.21,19.21,0,0,1-2.43,2.75A11.5,11.5,0,0,1,124,63.34a9.3,9.3,0,0,1-3.88.78,14.49,14.49,0,0,1-4.94-1,10.63,10.63,0,0,1-5-4.29,17.66,17.66,0,0,1-2.41-6.69,25.18,25.18,0,0,1-.27-3.67,24.11,24.11,0,0,1,.3-3.79,17.91,17.91,0,0,1,4.11-9.26,10.64,10.64,0,0,1,7.64-3.64H120a10.3,10.3,0,0,1,5.38,1.34,6.36,6.36,0,0,1,2.95,3.94,8.59,8.59,0,0,1,.23,2q0,4.08-4.06,7.82a21.05,21.05,0,0,1-4.25,2.89,12.61,12.61,0,0,1-4.36,1.45,13.19,13.19,0,0,0,2.14,7A3.54,3.54,0,0,0,121,59.8a5.57,5.57,0,0,0,2-.41,8.29,8.29,0,0,0,3.13-2.59,21.36,21.36,0,0,0,2.13-3.27,1.23,1.23,0,0,1,.87-.66l.27,0A1.33,1.33,0,0,1,130.14,53.1Zm-7.55-10.86A6.08,6.08,0,0,0,124,38.68a4.07,4.07,0,0,0-.12-1,2.5,2.5,0,0,0-1-1.49,2.89,2.89,0,0,0-.92-.12h-.47a2.78,2.78,0,0,0-1.23.57,6.2,6.2,0,0,0-1.74,2,20.66,20.66,0,0,0-2.32,8.19,11.74,11.74,0,0,0,3.06-1.48A13.2,13.2,0,0,0,122.59,42.24Z"/><path class="cls-5" d="M160.73,40.12c.09,3.68.2,7.49.33,11.45s.28,7.06.45,9.31v.21a2.75,2.75,0,0,1-.72,1.9,3.49,3.49,0,0,1-2.54,1,1.23,1.23,0,0,1-.26,0l-1,0a4.08,4.08,0,0,1-2.84-.93,2.73,2.73,0,0,1-.88-1.87q-.12-3.35-.37-8a20.92,20.92,0,0,1-2.18,4.19,10.16,10.16,0,0,1-2.91,2.9,10.59,10.59,0,0,1-1,.53,4.45,4.45,0,0,1-1.31.39,6.59,6.59,0,0,1-1.13.14h-.16a9.72,9.72,0,0,1-3.53-.78,7.66,7.66,0,0,1-3.86-4.86,28.79,28.79,0,0,1-1.17-8.44v-.78q0-4.56.48-9.59c.06-.8.12-1.46.16-2A2.84,2.84,0,0,1,139,32l.18,0,1.79-.07a4.78,4.78,0,0,1,.53,0,2.88,2.88,0,0,1,2,.73,2.4,2.4,0,0,1,.6.8,3.08,3.08,0,0,1,.28,1.38v.14c0,.37,0,.83-.07,1.4q-.69,10.13-.69,14.81c0,.46,0,1.53.08,3.2s.52,2.61,1.41,2.79a.47.47,0,0,0,.16,0,.67.67,0,0,0,.33-.08,1.92,1.92,0,0,0,.29-.15,0,0,0,0,1,0,0,9.83,9.83,0,0,0,3.31-4.93,44.27,44.27,0,0,0,2-8c.47-2.93.8-5.67,1-8.21,0-.63,0-1.18.07-1.65a3,3,0,0,1,.65-1.75,3.1,3.1,0,0,1,2.29-1h0l.26,0,.09,0h1.65a5.35,5.35,0,0,1,1.17.15,3,3,0,0,1,1.27.65,2.45,2.45,0,0,1,.84,1.72C160.61,35.24,160.66,37.34,160.73,40.12Z"/><path class="cls-5" d="M190.23,35.21a12.26,12.26,0,0,1,2.45,6.09,14.94,14.94,0,0,1,.19,2.43,18.92,18.92,0,0,1-.74,5.12,3.38,3.38,0,0,1-3.26,2.48,3.88,3.88,0,0,1-.57,0l-2.37-.39a3.37,3.37,0,0,1-2.36-1.65,3.21,3.21,0,0,1-.18-2.89,8.77,8.77,0,0,0,.52-3,13.64,13.64,0,0,0-.35-2.64A4.71,4.71,0,0,0,181.87,38a.94.94,0,0,0-.62-.28h-.05a1.81,1.81,0,0,0-.91.41,15.8,15.8,0,0,0-3.69,6.27,35.17,35.17,0,0,0-1.73,8.86c0,3-.06,5.57-.16,7.6a3.28,3.28,0,0,1-3,3.26l-.09,0h-1.08a5,5,0,0,1-3-.89,2.64,2.64,0,0,1-1.2-2.19q0-7.32-.21-16.25-.13-6.65-.14-9.37a3.78,3.78,0,0,1,4.09-4.07h.34a5.87,5.87,0,0,1,2.28.39,3.8,3.8,0,0,1,1.37.92,3.33,3.33,0,0,1,1,2.37c0,.11,0,.21,0,.32-.08.73-.13,1.79-.16,3.17a14.54,14.54,0,0,1,3.74-4.32,9.51,9.51,0,0,1,5-1.9l.48,0A7.64,7.64,0,0,1,190.23,35.21Z"/><path class="cls-5" d="M200.65,64.28a6.42,6.42,0,0,1-1.58-.21,3,3,0,0,1-1.4-.78,2.34,2.34,0,0,1-.67-1.68V61.5q.12-2.76.12-7c0-1.43,0-3,0-4.64q-.09-7.48-.32-11.76v-.2a3.19,3.19,0,0,1,.8-2.16,5,5,0,0,1,3.88-1.31h.1a4.77,4.77,0,0,1,2.82.78,2.78,2.78,0,0,1,1.22,2.11c.07,1.09.11,2.57.11,4.46,0,.81,0,1.69,0,2.64q0,4.72-.22,9.55c-.11,3.21-.24,5.68-.38,7.39a2.72,2.72,0,0,1-.89,1.87A5,5,0,0,1,201,64.28ZM205,30.11a2.61,2.61,0,0,1-1.1,2.14,4.44,4.44,0,0,1-2.64.87,3.58,3.58,0,0,1-2.64-1.18,3.93,3.93,0,0,1-1.13-2.51,2.91,2.91,0,0,1,1.2-2.25,4.38,4.38,0,0,1,2.73-1,3.2,3.2,0,0,1,2.52,1.29A4.52,4.52,0,0,1,205,30.11Z"/><path class="cls-5" d="M227.83,55.44a1.29,1.29,0,0,1,.56-.71,1.41,1.41,0,0,1,.8-.23h.07l1.38.16a1.38,1.38,0,0,1,1,.57,1.27,1.27,0,0,1,.25.78,1.5,1.5,0,0,1,0,.35,10.89,10.89,0,0,1-6,7,9.43,9.43,0,0,1-3.79.81,11.52,11.52,0,0,1-10.72-8.31,20.65,20.65,0,0,1-.94-6.27c0-.49,0-1.54.13-3.16a20,20,0,0,1,1.56-6,15.42,15.42,0,0,1,5.24-7,10.61,10.61,0,0,1,6.2-2,11.35,11.35,0,0,1,1.28.07A6.82,6.82,0,0,1,228,32.62v0h0a4.91,4.91,0,0,1,1.36,1.45,5.61,5.61,0,0,1,.71,2.11,9,9,0,0,1,.07,1,6.74,6.74,0,0,1-.07.92,1.29,1.29,0,0,1-.67,1,1.23,1.23,0,0,1-.64.19,1.54,1.54,0,0,1-.51-.1l-.48-.16L227,38.7a1.37,1.37,0,0,1-.87-1.35V37.3a1.24,1.24,0,0,0,0-.27,1.63,1.63,0,0,0-.21-.83,1.16,1.16,0,0,0-.16-.21,1.48,1.48,0,0,0-.85-.27l-.45,0c-.22,0-.61.34-1.16,1a16.87,16.87,0,0,0-2.94,7,35,35,0,0,0-.76,7.12c0,.57,0,1.72.14,3.46a8.08,8.08,0,0,0,1.75,4.65,2.84,2.84,0,0,0,.64.52,1.65,1.65,0,0,0,.85.19c.15,0,.42,0,.79-.07a6.43,6.43,0,0,0,2-1A6.87,6.87,0,0,0,227.83,55.44Z"/><path class="cls-5" d="M252.47,50.43a9.12,9.12,0,0,1,2.06,5.35v.14a7.36,7.36,0,0,1-1.88,4.89A8.38,8.38,0,0,1,249.38,63a16.38,16.38,0,0,1-3.91.95,5.57,5.57,0,0,1-1.22.14,5,5,0,0,1-.76-.07,11.35,11.35,0,0,1-2.82-.39,6.44,6.44,0,0,1-2.73-1.49A8.38,8.38,0,0,1,235.18,56a10.57,10.57,0,0,1,.87-4,1.3,1.3,0,0,1,.81-.73,1.38,1.38,0,0,1,.43-.07,1.42,1.42,0,0,1,.65.16l1.19.66a1.39,1.39,0,0,1,.62.74,1.27,1.27,0,0,1,.07.44,1.4,1.4,0,0,1-.12.55,6.1,6.1,0,0,0-.46,2.18,4.4,4.4,0,0,0,1.5,3.28c.39.43,1.41.68,3,.76h.57l.42,0h.14a1.64,1.64,0,0,0,1-.71,3,3,0,0,0,.39-1.08,2.16,2.16,0,0,0,.05-.46,4.61,4.61,0,0,0-.37-1.57A8.45,8.45,0,0,0,244,53.49l-.87-.81-.07-.07a44.39,44.39,0,0,1-3.24-3.23,20,20,0,0,1-3.07-4.46,11,11,0,0,1-1.18-5V39.5q.51-4.91,5.51-7.3a10.33,10.33,0,0,1,4-.85,9.1,9.1,0,0,1,4.11,1,5.33,5.33,0,0,1,1.28.79,6,6,0,0,1,2.21,4.77,8,8,0,0,1-.1,1.26,1.32,1.32,0,0,1-.68.92,1.28,1.28,0,0,1-.63.16,1.47,1.47,0,0,1-.52-.11l-1.29-.53a1.36,1.36,0,0,1-.83-1.29V38a2.23,2.23,0,0,0-.5-1.57c-.21-.15-.43-.29-.64-.41a1.67,1.67,0,0,0-.55-.09,2.9,2.9,0,0,0-1.61.6,2.33,2.33,0,0,0-1,1.69v.3a3.76,3.76,0,0,0,.32,1.54,14.68,14.68,0,0,0,1.92,3.2q1.2,1.58,2.79,3.37T252.47,50.43Z"/></g></g></svg>