<svg xmlns="http://www.w3.org/2000/svg" viewBox="0 0 250 250">
  <defs>
    <style>
      .a {
        fill: #eef0f1;
      }
    </style>
  </defs>
  <title>Volume-off</title>
  <g>
    <polygon class="a" points="137.5 50 114.83 67.01 137.5 89.68 137.5 50"/>
    <path class="a" d="M197.5,125a59.79,59.79,0,0,1-3.76,20.92l11.44,11.44A75.06,75.06,0,0,0,152.5,51.5V66.9A60.11,60.11,0,0,1,197.5,125Z"/>
    <path class="a" d="M166.91,119.09l14.72,14.72A45,45,0,0,0,152.5,82.57V99A30.08,30.08,0,0,1,166.91,119.09Z"/>
    <path class="a" d="M75.59,49,65,59.59l25.59,25.6L77.5,95h-40v60h40l60,45V132.11l17.34,17.34c-.76.54-1.53,1.05-2.34,1.52v16.46a44.84,44.84,0,0,0,13.07-7.26l10.62,10.63a59.89,59.89,0,0,1-23.69,12.3v15.4a74.76,74.76,0,0,0,34.35-17L206.41,201l10.6-10.6Z"/>
  </g>
</svg>
